HIERARCHY
ROOT Hips
{
	OFFSET 0.000000 0.000000 0.000000
	CHANNELS 6 Xposition Yposition Zposition Xrotation Yrotation Zrotation
	JOINT LeftUpLeg_virtual
	{
		OFFSET 0.000000 0.000000 0.000000
		CHANNELS 3 Xrotation Yrotation Zrotation
		JOINT LeftUpLeg
		{
			OFFSET 11.394100 -6.187798 -0.413800
			CHANNELS 3 Xrotation Yrotation Zrotation
			JOINT LeftLeg
			{
				OFFSET 0.430247 -32.302673 3.732800
				CHANNELS 3 Xrotation Yrotation Zrotation
				JOINT LeftFoot
				{
					OFFSET -0.430247 -48.264931 -6.423300
					CHANNELS 3 Xrotation Yrotation Zrotation
					JOINT LeftToeBase
					{
						OFFSET 4.230900 -16.068199 23.438400
						CHANNELS 3 Xrotation Yrotation Zrotation
						JOINT LeftToe_End
						{
							OFFSET 4.510700 0.695400 19.974600
							CHANNELS 3 Xrotation Yrotation Zrotation
							End Site
							{
								OFFSET 0 0 0
							}
						}
					}
				}
			}
		}
	}
	JOINT RightUpLeg_virtual
	{
		OFFSET 0.000000 0.000000 0.000000
		CHANNELS 3 Xrotation Yrotation Zrotation
		JOINT RightUpLeg
		{
			OFFSET -11.333700 -6.187798 -0.413800
			CHANNELS 3 Xrotation Yrotation Zrotation
			JOINT RightLeg
			{
				OFFSET -0.430392 -32.302628 3.733000
				CHANNELS 3 Xrotation Yrotation Zrotation
				JOINT RightFoot
				{
					OFFSET 0.430392 -48.264973 -6.423500
					CHANNELS 3 Xrotation Yrotation Zrotation
					JOINT RightToeBase
					{
						OFFSET -4.230900 -16.068199 23.438400
						CHANNELS 3 Xrotation Yrotation Zrotation
						JOINT RightToe_End
						{
							OFFSET -4.510700 0.695400 19.974600
							CHANNELS 3 Xrotation Yrotation Zrotation
							End Site
							{
								OFFSET 0 0 0
							}
						}
					}
				}
			}
		}
	}
	JOINT Spine_virtual
	{
		OFFSET 0.000000 0.000000 0.000000
		CHANNELS 3 Xrotation Yrotation Zrotation
		JOINT Spine
		{
			OFFSET -0.002400 12.777504 0.315300
			CHANNELS 3 Xrotation Yrotation Zrotation
			JOINT Spine1
			{
				OFFSET -0.002067 5.816869 0.032633
				CHANNELS 3 Xrotation Yrotation Zrotation
				JOINT Spine1_split
				{
					OFFSET -0.002067 5.816869 0.032633
					CHANNELS 3 Xrotation Yrotation Zrotation
					JOINT Spine2
					{
						OFFSET -0.002067 5.816869 0.032633
						CHANNELS 3 Xrotation Yrotation Zrotation
						JOINT Neck_virtual
						{
							OFFSET 0.000000 0.000000 0.000000
							CHANNELS 3 Xrotation Yrotation Zrotation
							JOINT Neck
							{
								OFFSET -0.003700 21.199493 -0.826900
								CHANNELS 3 Xrotation Yrotation Zrotation
								JOINT Head
								{
									OFFSET 0.000000 20.442200 4.834800
									CHANNELS 3 Xrotation Yrotation Zrotation
									JOINT HeadTop_End
									{
										OFFSET 0.000000 34.668396 4.968400
										CHANNELS 3 Xrotation Yrotation Zrotation
										End Site
										{
											OFFSET 0 0 0
										}
									}
								}
							}
						}
						JOINT LeftShoulder_virtual
						{
							OFFSET 0.000000 0.000000 0.000000
							CHANNELS 3 Xrotation Yrotation Zrotation
							JOINT LeftShoulder
							{
								OFFSET 3.288150 8.794197 -1.372250
								CHANNELS 3 Xrotation Yrotation Zrotation
								JOINT LeftShoulder_split
								{
									OFFSET 3.288150 8.794197 -1.372250
									CHANNELS 3 Xrotation Yrotation Zrotation
									JOINT LeftArm
									{
										OFFSET 11.953299 -2.279007 -0.146200
										CHANNELS 3 Xrotation Yrotation Zrotation
										JOINT LeftForeArm
										{
											OFFSET 18.448900 0.000000 0.000000
											CHANNELS 3 Xrotation Yrotation Zrotation
											JOINT LeftHand
											{
												OFFSET 29.527798 0.000000 0.000000
												CHANNELS 3 Xrotation Yrotation Zrotation
												End Site
												{
													OFFSET 0 0 0
												}
											}
										}
									}
								}
							}
						}
						JOINT RightShoulder_virtual
						{
							OFFSET 0.000000 0.000000 0.000000
							CHANNELS 3 Xrotation Yrotation Zrotation
							JOINT RightShoulder
							{
								OFFSET -3.249400 8.794197 -1.372250
								CHANNELS 3 Xrotation Yrotation Zrotation
								JOINT RightShoulder_split
								{
									OFFSET -3.249400 8.794197 -1.372250
									CHANNELS 3 Xrotation Yrotation Zrotation
									JOINT RightArm
									{
										OFFSET -11.953299 -2.279007 -0.146200
										CHANNELS 3 Xrotation Yrotation Zrotation
										JOINT RightForeArm
										{
											OFFSET -18.448900 0.000000 0.000000
											CHANNELS 3 Xrotation Yrotation Zrotation
											JOINT RightHand
											{
												OFFSET -29.527802 0.000000 0.000000
												CHANNELS 3 Xrotation Yrotation Zrotation
												End Site
												{
													OFFSET 0 0 0
												}
											}
										}
									}
								}
							}
						}
					}
				}
			}
		}
	}
}
MOTION
Frames: 10
Frame Time: 0.03333333
3.652592 85.456245 -7.757866 0.000000 0.000000 0.000000 6.229507 -46.697542 8.278098 -40.518164 4.755988 20.265946 45.584170 -12.070568 4.611982 -2.910408 -8.002700 -9.824653 -2.750227 -1.670596 -3.090266 0.000000 0.000000 0.000000 5.052919 -48.811640 8.636860 -20.401896 -7.130071 -24.289544 48.599490 6.162039 -4.470462 -17.725162 -25.192895 52.741249 4.395920 14.966439 -39.423531 0.000000 0.000000 0.000000 4.492431 -40.324576 5.118126 4.672248 11.037562 4.922611 1.799056 1.613321 -2.879879 0.418317 -1.358843 -0.043899 0.000000 0.000000 0.000000 2.456866 3.074229 -1.093017 8.390605 8.555950 3.569082 -38.886121 -77.892679 -51.347986 0.000000 0.000000 0.000000 -0.662367 0.470178 -3.966104 4.157508 -12.350207 9.504636 1.823745 5.795131 -7.283668 -49.413055 26.470355 -43.345098 178.723907 -47.854624 176.587875 0.000000 0.000000 0.000000 1.486661 1.696185 0.138354 5.235416 7.176623 -8.681187 -18.898126 -1.774288 13.131306 -33.561705 36.873251 75.668421 -125.384146 58.217479 124.529648 0.000000 0.000000 0.000000 
3.630613 85.831314 -7.620918 0.000000 0.000000 0.000000 6.033225 -47.103252 8.965218 -40.217834 5.728777 19.771550 43.889915 -12.613296 4.441859 -2.039845 -7.801093 -9.668056 -3.119498 -1.755609 -2.300766 0.000000 0.000000 0.000000 4.677159 -49.803383 9.058278 -19.843928 -6.915207 -24.653800 49.599560 5.702089 -4.369667 -18.187146 -25.506657 51.673062 5.261248 14.605087 -39.494025 0.000000 0.000000 0.000000 3.405225 -41.729369 5.526591 4.153952 10.987516 5.296291 2.109013 1.774023 -2.894506 0.187359 -1.097830 0.062247 0.000000 0.000000 0.000000 2.624647 3.227106 -1.117100 8.299782 7.986115 4.702756 -39.490709 -77.105350 -50.781022 0.000000 0.000000 0.000000 -0.101652 0.567338 -4.047776 4.330804 -12.371108 9.282414 2.289758 5.047752 -9.941664 -46.779095 25.788766 -47.754828 177.613878 -51.214104 175.376117 0.000000 0.000000 0.000000 1.887734 1.906776 -0.018868 5.132466 8.405191 -7.098827 -18.880724 -3.042954 9.162909 -33.551692 37.591360 73.154154 -124.521411 58.594902 123.964177 0.000000 0.000000 0.000000 
3.816720 86.532959 -7.419975 0.000000 0.000000 0.000000 5.816213 -48.874211 10.593382 -38.056988 8.298831 18.272423 40.373351 -12.724649 4.286144 -1.498809 -6.763810 -9.588687 -4.095349 -1.884715 -1.563646 0.000000 0.000000 0.000000 4.915828 -51.171921 10.523620 -19.055265 -5.211991 -25.021092 49.932532 4.905887 -4.371463 -19.175020 -25.398794 49.405074 5.642444 14.480187 -38.788791 0.000000 0.000000 0.000000 2.164951 -42.986974 6.644194 3.798455 10.771461 5.668418 2.650480 1.918524 -2.984334 0.177929 -0.807137 0.105716 0.000000 0.000000 0.000000 2.910390 3.345968 -1.209013 6.089522 6.963367 6.109382 -43.661998 -76.378208 -52.268183 0.000000 0.000000 0.000000 0.441328 0.734969 -4.183684 4.306224 -12.033323 8.681927 0.595980 3.965072 -10.770032 -40.890983 23.638260 -54.289356 174.944941 -56.520905 172.844139 0.000000 0.000000 0.000000 2.415275 2.103863 -0.323959 5.163085 9.689111 -5.136187 -17.766429 -2.994101 5.969357 -33.930170 37.480796 70.162333 -121.295963 61.228329 120.517732 0.000000 0.000000 0.000000 
4.140756 87.293625 -7.303310 0.000000 0.000000 0.000000 6.055730 -51.948223 13.036318 -34.492899 12.141599 16.072914 36.372062 -12.341412 4.241701 -1.676356 -4.636641 -9.714549 -3.671414 -1.948262 -1.834517 0.000000 0.000000 0.000000 5.772494 -53.312820 12.872636 -19.117621 -2.013600 -25.481819 49.778313 4.003540 -4.363437 -19.385723 -24.306777 46.744514 4.903651 14.692265 -37.520364 0.000000 0.000000 0.000000 1.096621 -44.469784 8.243927 3.980853 10.168371 6.038976 3.487680 1.913034 -2.973269 0.297326 -0.633221 0.100906 0.000000 0.000000 0.000000 3.402958 3.354482 -1.138810 2.097781 5.841945 7.355631 -49.401679 -75.380884 -54.327622 0.000000 0.000000 0.000000 1.029030 0.854725 -4.162342 4.126177 -11.121587 8.012967 -1.322725 3.869663 -9.982264 -32.812171 20.249499 -60.537182 170.801639 -62.608588 169.226024 0.000000 0.000000 0.000000 3.211953 2.135866 -0.609506 5.303201 11.022430 -3.111552 -16.150085 -2.201805 4.120362 -35.615031 38.100933 68.402371 -115.586212 65.479856 113.959104 0.000000 0.000000 0.000000 
4.637963 88.017715 -7.413200 0.000000 0.000000 0.000000 7.145985 -56.149131 16.078511 -30.437597 16.516366 13.737839 32.860098 -11.495943 4.280510 -2.344986 -1.498860 -10.373979 -1.508177 -1.958505 -3.197212 0.000000 0.000000 0.000000 7.687164 -56.897194 16.049987 -20.969372 2.552378 -25.811131 49.182444 3.393596 -4.257853 -17.677566 -21.542726 45.070342 3.238886 15.047911 -36.207905 0.000000 0.000000 0.000000 0.720372 -46.574527 10.145630 4.893600 9.023102 6.437887 4.676067 1.601810 -2.618428 0.280669 -0.589415 0.068393 0.000000 0.000000 0.000000 4.179643 3.155919 -0.744257 -2.982014 4.778428 8.014964 -55.056936 -74.131759 -55.858902 0.000000 0.000000 0.000000 1.915613 0.811021 -3.770015 3.873455 -9.602178 7.709402 -2.514475 4.784015 -8.044571 -23.106301 16.116888 -65.208000 165.573881 -68.196522 164.868554 0.000000 0.000000 0.000000 4.320307 1.907705 -0.574400 5.510585 12.462797 -1.367989 -14.731296 -1.620359 3.809957 -39.691401 41.013835 69.223619 -107.106245 70.142512 103.989767 0.000000 0.000000 0.000000 
5.199867 88.729347 -7.737175 0.000000 0.000000 0.000000 9.241691 -61.114340 19.448434 -26.143241 20.500799 11.738063 30.100586 -10.636929 4.369059 -3.039469 2.204131 -11.825667 -0.128432 -2.013345 -4.505463 0.000000 0.000000 0.000000 10.633120 -61.623292 19.815002 -25.050817 7.995799 -25.329789 48.372844 3.166127 -3.974778 -14.441356 -17.026538 44.240932 2.129109 15.046794 -35.260766 0.000000 0.000000 0.000000 1.479440 -49.501034 12.111363 6.717613 7.267672 6.855252 6.205717 1.000883 -1.858907 0.167537 -0.629475 0.105360 0.000000 0.000000 0.000000 5.354120 2.777438 0.008886 -8.099105 4.032911 7.638646 -58.605441 -72.551355 -55.449129 0.000000 0.000000 0.000000 3.473374 0.556163 -2.926701 3.597442 -7.398751 8.075136 -3.132573 6.151766 -5.436856 -12.473630 11.358630 -67.859241 159.574570 -72.720696 159.886628 0.000000 0.000000 0.000000 5.883219 1.475188 -0.070120 5.784800 13.920504 -0.122506 -12.748551 -0.921003 5.155922 -47.625987 46.319990 74.530485 -96.497199 73.871522 91.446643 0.000000 0.000000 0.000000 
5.712952 89.430862 -8.523800 0.000000 0.000000 0.000000 12.522439 -66.031141 23.090508 -21.950541 23.686855 10.343282 28.105740 -9.698861 4.352655 -4.017403 6.304239 -13.505009 -0.570627 -2.153589 -5.196588 0.000000 0.000000 0.000000 14.841421 -66.309635 24.059253 -30.880334 13.314340 -23.488768 47.437160 3.001805 -3.409830 -10.987689 -11.389654 42.881915 2.982458 14.336786 -34.921401 0.000000 0.000000 0.000000 3.737324 -53.571977 14.256062 9.361520 5.063983 7.309136 8.139352 0.298098 -0.773681 -0.003562 -0.534521 0.172501 0.000000 0.000000 0.000000 6.917350 2.341727 1.039999 -12.317058 3.794805 6.473619 -59.403911 -70.692513 -52.778600 0.000000 0.000000 0.000000 5.858673 0.176953 -1.740768 3.295532 -4.750807 8.942497 -3.635036 6.725930 -3.292747 -1.691821 5.660253 -69.033801 151.869939 -76.073950 153.038079 0.000000 0.000000 0.000000 7.947932 0.994018 0.781845 6.120525 15.248199 0.796492 -10.243756 0.466321 7.181942 -60.384910 52.406027 85.453207 -86.752739 76.024240 79.685932 0.000000 0.000000 0.000000 
6.132084 89.989967 -9.561642 0.000000 0.000000 0.000000 16.577513 -70.252040 26.769415 -17.743464 25.919596 9.517674 26.674600 -8.499952 4.120139 -5.934846 10.612056 -14.603749 -1.723081 -2.444609 -5.517547 0.000000 0.000000 0.000000 20.242673 -70.372764 28.856487 -37.639185 17.696084 -20.046771 46.114903 2.571638 -2.544342 -8.390405 -5.330204 40.282202 6.027513 12.974196 -35.015347 0.000000 0.000000 0.000000 7.543020 -58.249547 16.843226 12.638422 2.596100 7.634038 10.429102 -0.282917 0.386044 -0.142470 -0.381146 0.152599 0.000000 0.000000 0.000000 8.950209 1.996015 2.099182 -14.882852 3.874443 4.932515 -57.354342 -68.750130 -47.913053 0.000000 0.000000 0.000000 8.917112 -0.177587 -0.470528 2.914110 -2.117905 10.206342 -4.092867 6.851824 -1.895646 8.030749 -1.473776 -69.638983 139.578372 -78.267548 141.138619 0.000000 0.000000 0.000000 10.515222 0.684446 1.765670 6.512272 16.400427 1.597436 -7.391929 1.327608 7.876728 -76.986040 55.894006 100.615920 -82.934411 76.619505 74.070526 0.000000 0.000000 0.000000 
6.535607 90.332909 -10.699055 0.000000 0.000000 0.000000 21.013249 -73.491183 30.283536 -13.562554 27.263339 9.078780 25.660293 -7.463175 3.694601 -8.818447 14.796358 -15.312442 -2.141837 -2.906020 -5.802843 0.000000 0.000000 0.000000 26.280307 -73.687038 33.975973 -44.420910 20.593599 -15.586246 44.304558 1.924852 -1.545869 -6.511572 0.667587 36.778725 9.701090 11.501740 -35.062110 0.000000 0.000000 0.000000 12.604457 -63.005223 20.322282 16.269500 0.028029 7.555844 12.851772 -0.567249 1.336796 -0.176267 -0.147277 0.130983 0.000000 0.000000 0.000000 11.242622 1.845828 2.899476 -15.524342 3.941098 3.657527 -52.873235 -66.827104 -41.224764 0.000000 0.000000 0.000000 12.225675 -0.413911 0.568225 2.439240 0.177092 11.702245 -3.975550 6.408249 -1.126588 15.139751 -9.428264 -70.078724 119.201677 -79.190525 120.411577 0.000000 0.000000 0.000000 13.392920 0.637445 2.577339 6.949646 17.164617 2.369949 -4.584583 1.109108 7.296511 -90.604454 55.699083 112.674161 -85.915522 76.048460 75.662807 0.000000 0.000000 0.000000 
6.956499 90.522835 -11.614357 0.000000 0.000000 0.000000 26.425346 -75.878368 34.520387 -9.937123 28.035985 8.867270 24.995222 -6.876603 3.086716 -12.161064 18.550423 -16.112071 -1.197986 -3.501282 -6.168866 0.000000 0.000000 0.000000 33.529221 -76.344235 40.248901 -50.271616 22.059245 -11.005927 42.212386 1.102849 -0.613404 -4.446535 6.086348 33.320320 11.829551 10.522251 -34.723630 0.000000 0.000000 0.000000 18.704178 -67.196344 25.070481 19.697917 -2.449977 6.851383 15.143340 -0.532313 1.897928 -0.159311 0.124126 0.070935 0.000000 0.000000 0.000000 13.444543 1.892353 3.219306 -14.426985 3.540917 3.239845 -47.111937 -64.818290 -33.567651 0.000000 0.000000 0.000000 15.351736 -0.472178 1.194490 1.938348 1.815159 13.251907 -3.791616 5.596060 -1.210148 19.230818 -16.572863 -70.728241 94.130320 -78.102674 94.363797 0.000000 0.000000 0.000000 16.122477 0.840836 3.039610 7.264599 17.279608 3.205002 -2.098161 0.023862 6.669045 -95.985400 53.893673 116.129130 -92.222642 74.689246 81.026302 0.000000 0.000000 0.000000 
